<svg xmlns="http://www.w3.org/2000/svg" viewBox="0 0 64 64">
  <!-- Warm Studio mark: hand-drawn asterisk (the site's eyebrow doodle) on a terracotta blob -->
  <path fill="#C4622D" d="M33.4,3.8 C43.9,3.2 54.2,9.4 58.1,19.2 C62.1,29.3 60.4,41.6 53,49.6 C45.6,57.5 33.6,61.6 23.1,58.4 C13,55.3 5.2,46.2 4.1,35.6 C3,25.1 8.2,14.4 17,8.6 C21.9,5.4 27.6,4.1 33.4,3.8 Z"/>
  <g stroke="#FAF6EF" stroke-width="5.5" stroke-linecap="round" fill="none">
    <path d="M32.3,15.2 C32.7,20.8 32.3,26.8 32.1,32.2 C31.9,37.8 32.2,43.4 31.9,48.6"/>
    <path d="M17.6,23.8 C22.4,26.7 27.6,29.6 32.1,32.1 C36.9,34.8 41.9,37.5 46.5,40.2"/>
    <path d="M46.3,23.6 C41.5,26.4 36.7,29.5 32,32.2 C27.3,34.8 22.3,37.6 17.7,40.4"/>
  </g>
</svg>
